<?xml version="1.0" standalone="no"?>
<!DOCTYPE svg PUBLIC "-//W3C//DTD SVG 20010904//EN"
 "http://www.w3.org/TR/2001/REC-SVG-20010904/DTD/svg10.dtd">
<svg version="1.0" xmlns="http://www.w3.org/2000/svg"
 width="16.000000pt" height="16.000000pt" viewBox="0 0 16.000000 16.000000"
 preserveAspectRatio="xMidYMid meet">

<g transform="translate(0.000000,16.000000) scale(0.100000,-0.100000)"
fill="#000000" stroke="none">
<path d="M0 130 c0 -18 7 -20 80 -20 73 0 80 2 80 20 0 18 -7 20 -80 20 -73 0
-80 -2 -80 -20z"/>
<path d="M0 50 l0 -50 80 0 80 0 0 50 0 50 -80 0 -80 0 0 -50z m118 3 c-21 -2
-55 -2 -75 0 -21 2 -4 4 37 4 41 0 58 -2 38 -4z"/>
</g>
</svg>
